HIERARCHY
ROOT Junyuan_V1:Solving:Hips
{
	OFFSET 0.000000 0.000000 0.000000
	CHANNELS 6 Xposition Yposition Zposition Xrotation Yrotation Zrotation
	JOINT Junyuan_V1:Solving:Spine
	{
		OFFSET 0.000000 -8.943189 2.778120
		CHANNELS 6 Xposition Yposition Zposition Xrotation Yrotation Zrotation
		JOINT Junyuan_V1:Solving:Spine1
		{
			OFFSET 0.000000 -9.944814 1.753542
			CHANNELS 6 Xposition Yposition Zposition Xrotation Yrotation Zrotation
			JOINT Junyuan_V1:Solving:Spine2
			{
				OFFSET 0.000000 -10.059801 0.880121
				CHANNELS 6 Xposition Yposition Zposition Xrotation Yrotation Zrotation
				JOINT Junyuan_V1:Solving:Spine3
				{
					OFFSET 0.000000 -10.098228 0.000000
					CHANNELS 6 Xposition Yposition Zposition Xrotation Yrotation Zrotation
					JOINT Junyuan_V1:Solving:Neck
					{
						OFFSET 0.000000 -12.983437 -1.298342
						CHANNELS 6 Xposition Yposition Zposition Xrotation Yrotation Zrotation
						JOINT Junyuan_V1:Solving:Neck1
						{
							OFFSET 0.000000 -8.085114 -0.707354
							CHANNELS 6 Xposition Yposition Zposition Xrotation Yrotation Zrotation
							JOINT Junyuan_V1:Solving:Head
							{
								OFFSET 0.000000 -7.992695 -1.409326
								CHANNELS 6 Xposition Yposition Zposition Xrotation Yrotation Zrotation
								JOINT Junyuan_V1:Solving:HeadEnd
								{
									OFFSET 0.000000 -9.728081 0.000002
									CHANNELS 6 Xposition Yposition Zposition Xrotation Yrotation Zrotation
									End Site
									{
										OFFSET 0.000000 -9.728081 0.000002
									}
								}
							}
						}
					}
					JOINT Junyuan_V1:Solving:RightShoulder
					{
						OFFSET 0.000000 -9.273884 -6.154356
						CHANNELS 6 Xposition Yposition Zposition Xrotation Yrotation Zrotation
						JOINT Junyuan_V1:Solving:RightArm
						{
							OFFSET -19.110832 -0.000008 0.000000
							CHANNELS 6 Xposition Yposition Zposition Xrotation Yrotation Zrotation
							JOINT Junyuan_V1:Solving:RightForeArm
							{
								OFFSET -27.916382 -0.000008 0.000000
								CHANNELS 6 Xposition Yposition Zposition Xrotation Yrotation Zrotation
								JOINT Junyuan_V1:Solving:RightHand
								{
									OFFSET -21.757072 -0.000008 0.000000
									CHANNELS 6 Xposition Yposition Zposition Xrotation Yrotation Zrotation
									JOINT Junyuan_V1:Solving:RightHandThumb1
									{
										OFFSET -3.656471 2.766285 -2.718907
										CHANNELS 6 Xposition Yposition Zposition Xrotation Yrotation Zrotation
										End Site
										{
											OFFSET -5.307442 0.000000 -5.356520
										}
									}
									JOINT Junyuan_V1:Solving:RightHandMiddle1
									{
										OFFSET -9.750572 -0.000004 0.062504
										CHANNELS 6 Xposition Yposition Zposition Xrotation Yrotation Zrotation
										End Site
										{
											OFFSET -7.540642 -0.000004 0.000000
										}
									}
								}
							}
						}
					}
					JOINT Junyuan_V1:Solving:LeftShoulder
					{
						OFFSET 0.000000 -9.273884 -6.154356
						CHANNELS 6 Xposition Yposition Zposition Xrotation Yrotation Zrotation
						JOINT Junyuan_V1:Solving:LeftArm
						{
							OFFSET 19.110832 -0.000008 0.000000
							CHANNELS 6 Xposition Yposition Zposition Xrotation Yrotation Zrotation
							JOINT Junyuan_V1:Solving:LeftForeArm
							{
								OFFSET 27.916382 -0.000008 0.000000
								CHANNELS 6 Xposition Yposition Zposition Xrotation Yrotation Zrotation
								JOINT Junyuan_V1:Solving:LeftHand
								{
									OFFSET 21.757072 -0.000008 0.000000
									CHANNELS 6 Xposition Yposition Zposition Xrotation Yrotation Zrotation
									JOINT Junyuan_V1:Solving:LeftHandThumb1
									{
										OFFSET 3.656471 2.766285 -2.718907
										CHANNELS 6 Xposition Yposition Zposition Xrotation Yrotation Zrotation
										End Site
										{
											OFFSET 5.307442 0.000000 -5.356520
										}
									}
									JOINT Junyuan_V1:Solving:LeftHandMiddle1
									{
										OFFSET 9.750572 -0.000004 0.062504
										CHANNELS 6 Xposition Yposition Zposition Xrotation Yrotation Zrotation
										End Site
										{
											OFFSET 7.540642 -0.000004 0.000000
										}
									}
								}
							}
						}
					}
				}
			}
		}
	}
	JOINT Junyuan_V1:Solving:RightUpLeg
	{
		OFFSET -8.521003 0.000000 0.000000
		CHANNELS 6 Xposition Yposition Zposition Xrotation Yrotation Zrotation
		JOINT Junyuan_V1:Solving:RightLeg
		{
			OFFSET 0.000000 41.622898 -0.000006
			CHANNELS 6 Xposition Yposition Zposition Xrotation Yrotation Zrotation
			JOINT Junyuan_V1:Solving:RightFoot
			{
				OFFSET 0.000000 37.258389 -0.000006
				CHANNELS 6 Xposition Yposition Zposition Xrotation Yrotation Zrotation
				JOINT Junyuan_V1:Solving:RightForeFoot
				{
					OFFSET 0.000000 3.234154 -0.000000
					CHANNELS 6 Xposition Yposition Zposition Xrotation Yrotation Zrotation
					JOINT Junyuan_V1:Solving:RightToeBase
					{
						OFFSET 0.000000 0.000000 -12.665958
						CHANNELS 6 Xposition Yposition Zposition Xrotation Yrotation Zrotation
						JOINT Junyuan_V1:Solving:RightToeBaseEnd
						{
							OFFSET 0.000000 0.000000 -2.833065
							CHANNELS 6 Xposition Yposition Zposition Xrotation Yrotation Zrotation
							End Site
							{
								OFFSET 0.000000 -2.833061 0.000002
							}
						}
					}
				}
			}
		}
	}
	JOINT Junyuan_V1:Solving:LeftUpLeg
	{
		OFFSET 8.521003 0.000000 0.000000
		CHANNELS 6 Xposition Yposition Zposition Xrotation Yrotation Zrotation
		JOINT Junyuan_V1:Solving:LeftLeg
		{
			OFFSET 0.000000 41.622898 -0.000006
			CHANNELS 6 Xposition Yposition Zposition Xrotation Yrotation Zrotation
			JOINT Junyuan_V1:Solving:LeftFoot
			{
				OFFSET 0.000000 37.258389 -0.000006
				CHANNELS 6 Xposition Yposition Zposition Xrotation Yrotation Zrotation
				JOINT Junyuan_V1:Solving:LeftForeFoot
				{
					OFFSET 0.000000 3.234154 -0.000000
					CHANNELS 6 Xposition Yposition Zposition Xrotation Yrotation Zrotation
					JOINT Junyuan_V1:Solving:LeftToeBase
					{
						OFFSET 0.000000 0.000000 -12.665958
						CHANNELS 6 Xposition Yposition Zposition Xrotation Yrotation Zrotation
						JOINT Junyuan_V1:Solving:LeftToeBaseEnd
						{
							OFFSET 0.000000 0.000000 -4.326123
							CHANNELS 6 Xposition Yposition Zposition Xrotation Yrotation Zrotation
							End Site
							{
								OFFSET 0.000000 -4.326126 0.000000
							}
						}
					}
				}
			}
		}
	}
}
MOTION
Frames: 4
Frame Time: 0.041667
-15.493237 35.577927 -88.188614 85.254087 176.601385 1.722471 0.000000 -8.943208 2.778118 8.514988 0.249666 -0.927003 0.000004 -9.944818 1.753541 -1.615458 0.127480 -0.143967 -0.000003 -10.059782 0.880117 -6.120477 1.220924 -0.923704 0.000000 -10.098241 0.000014 -5.052447 0.216636 -1.245133 -0.000003 -12.983434 -1.298345 4.810764 -0.793776 4.021187 0.000001 -8.085081 -0.707347 -5.147737 -1.592530 -1.433118 0.000003 -7.992698 -1.409327 -3.505852 0.521950 -1.696215 0.000003 -9.728096 0.000002 -0.000000 -0.000000 0.000000 -0.000006 -9.273888 -6.154361 -0.000009 20.673041 14.127446 -19.110826 -0.000006 0.000013 2.027385 -29.365391 -90.145322 -27.916388 0.000003 -0.000005 15.011456 -27.686124 7.102228 -21.757059 -0.000012 -0.000002 0.273862 0.739746 -20.316203 -3.656504 2.766295 -2.718901 -0.000005 -0.000002 -0.000003 -9.750587 0.000004 0.062504 -0.000006 0.000001 0.000001 -0.000004 -9.273884 -6.154361 -0.000011 -17.263846 -11.545707 19.110823 -0.000028 0.000005 0.139516 39.113789 89.818757 27.916388 -0.000011 -0.000000 9.131567 25.611533 -3.974654 21.757067 0.000001 0.000002 -0.541243 1.295254 22.680960 3.656450 2.766282 -2.718909 0.000004 0.000002 0.000002 9.750571 -0.000000 0.062507 0.000007 -0.000002 -0.000001 -8.521000 0.000003 -0.000001 -1.901275 10.122011 -3.175778 0.000001 41.622875 -0.000006 -0.268394 0.000000 0.000000 -0.000003 37.258381 0.000002 6.344214 1.683081 7.955321 0.000001 3.234146 -0.000006 0.000001 0.000000 -0.000000 0.000003 -0.000017 -12.665956 -4.406118 0.000002 0.000000 -0.000001 -0.000008 -2.833058 0.000000 -0.000001 -0.000000 8.521007 -0.000019 0.000003 -2.328147 0.620831 -8.134631 0.000009 41.622894 -0.000009 -0.707084 0.000000 -0.000001 0.000007 37.258400 -0.000015 7.912661 11.623044 9.258954 0.000004 3.234146 0.000007 0.000000 0.000000 -0.000000 0.000000 -0.000011 -12.665959 1.484321 0.000001 0.000000 0.000002 -0.000008 -4.326118 -0.000001 -0.000002 -0.000001 
-15.428595 35.563675 -88.182724 85.240331 176.597533 1.730352 -0.000002 -8.943183 2.778109 8.531051 0.248689 -1.022878 -0.000003 -9.944836 1.753535 -1.610629 0.131008 -0.160258 -0.000001 -10.059800 0.880126 -6.111147 1.223077 -0.934948 -0.000000 -10.098237 0.000007 -5.038908 0.215639 -1.229786 -0.000002 -12.983400 -1.298339 4.803060 -0.806543 4.031480 -0.000003 -8.085074 -0.707357 -5.145027 -1.621596 -1.422955 -0.000001 -7.992690 -1.409337 -3.506526 0.516692 -1.689324 -0.000001 -9.728088 -0.000000 -0.000000 0.000000 0.000000 0.000000 -9.273891 -6.154351 -0.000010 20.643659 14.083687 -19.110815 0.000015 0.000002 2.106881 -29.557797 -90.002694 -27.916401 -0.000006 0.000005 14.613407 -27.843546 6.943080 -21.757076 -0.000004 0.000004 0.288926 0.772385 -20.510117 -3.656462 2.766281 -2.718916 0.000000 0.000002 0.000002 -9.750578 -0.000002 0.062496 0.000001 0.000001 0.000003 0.000002 -9.273891 -6.154351 -0.000008 -17.259642 -11.489392 19.110815 0.000001 0.000009 0.155961 38.763485 89.694324 27.916363 0.000000 -0.000004 9.103453 25.363750 -3.926578 21.757057 -0.000003 -0.000004 -0.539893 1.273486 22.976738 3.656474 2.766282 -2.718903 0.000010 -0.000007 0.000003 9.750577 -0.000009 0.062507 0.000006 -0.000004 -0.000004 -8.521005 0.000008 -0.000011 -1.882797 10.034117 -3.230428 0.000000 41.622894 -0.000004 -0.308111 0.000001 -0.000000 -0.000003 37.258389 0.000005 6.340851 1.758747 7.977148 0.000001 3.234154 -0.000005 0.000001 -0.000001 -0.000000 0.000000 -0.000015 -12.665958 -4.384998 -0.000001 -0.000000 -0.000001 -0.000008 -2.833063 0.000000 -0.000000 0.000001 8.521003 0.000029 -0.000011 -2.343504 0.587500 -8.186861 0.000005 41.622883 0.000002 -0.698897 0.000000 0.000001 -0.000005 37.258404 -0.000020 7.894810 11.659479 9.284794 -0.000006 3.234146 0.000009 0.000001 -0.000000 -0.000000 -0.000001 -0.000011 -12.665955 1.471994 -0.000001 0.000000 0.000001 -0.000008 -4.326121 -0.000000 -0.000001 -0.000000 
-15.369642 35.551498 -88.177231 85.224683 176.595456 1.719205 0.000001 -8.943195 2.778120 8.550050 0.251600 -1.117772 -0.000001 -9.944830 1.753546 -1.605448 0.132664 -0.172310 -0.000001 -10.059805 0.880111 -6.106661 1.220060 -0.943535 0.000000 -10.098239 0.000006 -5.032321 0.211330 -1.221410 0.000003 -12.983407 -1.298358 4.806856 -0.826870 4.066023 0.000003 -8.085122 -0.707361 -5.151127 -1.650949 -1.433843 0.000002 -7.992690 -1.409322 -3.517907 0.496236 -1.649944 0.000002 -9.728088 0.000008 -0.000000 -0.000000 0.000000 0.000004 -9.273899 -6.154372 -0.000007 20.613707 14.043541 -19.110821 0.000017 0.000012 2.193745 -29.720895 -89.871096 -27.916393 -0.000003 0.000002 14.234247 -27.974206 6.785853 -21.757046 -0.000007 -0.000002 0.354472 0.939622 -20.670126 -3.656478 2.766282 -2.718907 0.000005 0.000005 -0.000008 -9.750573 -0.000002 0.062506 0.000006 -0.000004 -0.000001 0.000007 -9.273880 -6.154372 -0.000007 -17.242177 -11.414648 19.110815 -0.000048 0.000007 0.192076 38.518661 89.550651 27.916367 0.000001 -0.000008 9.015055 25.151506 -3.857613 21.757069 -0.000011 0.000002 -0.532227 1.240071 23.230674 3.656468 2.766279 -2.718897 0.000001 -0.000002 -0.000004 9.750578 -0.000020 0.062502 0.000001 0.000001 -0.000002 -8.521002 0.000003 0.000004 -1.882852 9.916616 -3.259062 -0.000001 41.622890 0.000003 -0.325907 -0.000001 -0.000000 0.000002 37.258396 -0.000012 6.313069 1.859350 7.977855 0.000002 3.234146 -0.000002 0.000001 -0.000001 -0.000000 0.000000 -0.000014 -12.665955 -4.403163 -0.000001 -0.000000 0.000002 -0.000008 -2.833061 -0.000000 -0.000000 0.000001 8.521000 0.000005 0.000005 -2.363895 0.548587 -8.215954 0.000005 41.622898 -0.000006 -0.687087 0.000000 -0.000001 0.000005 37.258389 -0.000012 7.892824 11.697285 9.305263 0.000006 3.234146 -0.000000 0.000000 -0.000000 -0.000000 -0.000009 0.000004 -12.665956 1.449966 0.000001 -0.000000 -0.000000 -0.000008 -4.326125 -0.000002 0.000001 -0.000001 
-15.301848 35.536068 -88.169090 85.202580 176.605824 1.721161 -0.000004 -8.943159 2.778108 8.556510 0.262264 -1.218088 -0.000001 -9.944820 1.753534 -1.602290 0.135428 -0.184296 -0.000001 -10.059822 0.880107 -6.095192 1.195474 -0.960870 -0.000002 -10.098222 0.000002 -5.011859 0.203058 -1.212583 0.000001 -12.983444 -1.298331 4.805694 -0.843122 4.085314 0.000001 -8.085106 -0.707343 -5.167329 -1.674905 -1.404653 -0.000002 -7.992674 -1.409319 -3.526029 0.485373 -1.623927 0.000001 -9.728096 -0.000001 -0.000000 0.000000 0.000000 -0.000001 -9.273891 -6.154348 -0.000013 20.590428 14.001448 -19.110823 0.000006 0.000016 2.256628 -29.861970 -89.768589 -27.916420 -0.000007 -0.000001 13.717481 -28.109866 6.560743 -21.757074 -0.000009 0.000004 0.390812 1.023780 -20.894797 -3.656475 2.766270 -2.718914 -0.000004 0.000007 -0.000005 -9.750572 0.000001 0.062495 -0.000005 -0.000000 0.000000 0.000000 -9.273888 -6.154348 -0.000012 -17.223164 -11.340091 19.110819 -0.000022 0.000014 0.229982 38.333033 89.398256 27.916380 -0.000002 -0.000007 8.867150 24.985267 -3.770092 21.757074 -0.000002 -0.000000 -0.533008 1.224889 23.518240 3.656491 2.766269 -2.718899 0.000003 -0.000002 0.000006 9.750587 -0.000012 0.062509 -0.000000 0.000003 -0.000001 -8.521005 0.000018 -0.000011 -1.877105 9.826672 -3.307519 0.000001 41.622902 -0.000004 -0.355977 0.000001 0.000000 -0.000000 37.258400 0.000000 6.294123 1.916634 7.968341 -0.000000 3.234138 0.000011 0.000001 0.000001 0.000000 0.000001 -0.000000 -12.665943 -4.349141 -0.000001 -0.000001 -0.000001 -0.000008 -2.833063 -0.000001 -0.000002 -0.000001 8.520998 0.000007 -0.000008 -2.389645 0.495082 -8.261845 0.000004 41.622906 -0.000010 -0.674154 0.000001 0.000000 0.000003 37.258389 -0.000008 7.868558 11.717681 9.312935 -0.000012 3.234146 -0.000005 0.000002 -0.000001 -0.000001 0.000002 -0.000010 -12.665958 1.449557 -0.000001 0.000001 0.000007 -0.000008 -4.326118 -0.000000 0.000001 -0.000000 
